# xmcd
#
# Track frame offsets:
#	150
#	36541
#	50266
#	76209
#	91225
#	121750
#	147847
#	163372
#	178739
#
# Disc length: 2988 seconds
#
# Revision: 1
# Processed by: cddbd v1.5.2PL0 Copyright (c) Steve Scherf et al.
# Submitted via: audiograbber 1.83.01
#
DISCID=740baa09
DTITLE=Terry Hanck - Live
DYEAR=2003
DGENRE=Blues
TTITLE0=Have Mercy Baby
TTITLE1=Flatfoot Sam
TTITLE2=Pass the Peas
TTITLE3=You Don't Know Like I Know
TTITLE4=Could Have Let Me Go
TTITLE5=Can I Change My Mind
TTITLE6=Sen-Sa-Shun
TTITLE7=Hard As You Can
TTITLE8=Shoot Your Shot
EXTD=
EXTT0=
EXTT1=
EXTT2=
EXTT3=
EXTT4=
EXTT5=
EXTT6=
EXTT7=
EXTT8=
PLAYORDER=
